<svg xmlns="http://www.w3.org/2000/svg" width="1200" height="600" viewBox="0 0 1200 600" role="img" aria-label="Waleed Arkanji · وليد أركنجي — I build in silence. I think out loud."><title>Waleed Arkanji · وليد أركنجي — I build in silence. I think out loud.</title><style>
.rise{animation:rise 1.1s cubic-bezier(.16,1,.3,1) both}
@keyframes rise{from{opacity:0;transform:translateY(14px)}to{opacity:1;transform:none}}
.pulse{animation:pulse 2.4s ease-in-out infinite;transform-box:fill-box;transform-origin:center}
@keyframes pulse{0%,100%{opacity:1;transform:scale(1)}50%{opacity:.35;transform:scale(.7)}}
@media (prefers-reduced-motion:reduce){*{animation:none!important}}

.flicker{animation:flicker 5s ease-in-out infinite}
@keyframes flicker{0%,100%{opacity:1}18%{opacity:.82}22%{opacity:.95}47%{opacity:.78}52%{opacity:.92}74%{opacity:.85}}
.breathe{animation:breathe 9s ease-in-out infinite alternate}
@keyframes breathe{from{opacity:.10}to{opacity:.22}}
.mote{animation:mote linear infinite;opacity:0}
@keyframes mote{0%{opacity:0;transform:translateY(0)}15%{opacity:.75}100%{opacity:0;transform:translateY(-190px)}}
.draw{animation:draw 1.4s cubic-bezier(.65,0,.35,1) .9s both;transform-box:fill-box;transform-origin:center}
@keyframes draw{from{transform:scaleX(0)}to{transform:scaleX(1)}}
.d1{animation-delay:.15s}.d2{animation-delay:.55s}.d3{animation-delay:1.1s}.d4{animation-delay:1.45s}.d5{animation-delay:1.8s}
</style><defs><pattern id="sebka" width="40" height="40" patternUnits="userSpaceOnUse"><g fill="none" stroke="#e2b849" stroke-width="1.1"><path d="M20 0 Q33 7 40 20 Q33 33 20 40 Q7 33 0 20 Q7 7 20 0 Z"/><path d="M40 0 Q34 6 40 12 M0 12 Q6 6 0 0"/><path d="M40 40 Q34 34 40 28 M0 28 Q6 34 0 40"/></g><circle cx="20" cy="20" r="1.4" fill="#e2b849"/></pattern><radialGradient id="torch" cx="50%" cy="100%" r="75%"><stop offset="0" stop-color="#e2b849" stop-opacity=".30"/><stop offset=".45" stop-color="#e2b849" stop-opacity=".07"/><stop offset="1" stop-color="#e2b849" stop-opacity="0"/></radialGradient><radialGradient id="fade" cx="50%" cy="38%" r="60%"><stop offset="0" stop-color="#fff" stop-opacity=".9"/><stop offset=".7" stop-color="#fff" stop-opacity=".12"/><stop offset="1" stop-color="#fff" stop-opacity="0"/></radialGradient><mask id="sebkaMask"><rect width="100%" height="100%" fill="url(#fade)"/></mask><radialGradient id="vignette" cx="50%" cy="45%" r="75%"><stop offset=".55" stop-color="#000" stop-opacity="0"/><stop offset="1" stop-color="#000" stop-opacity=".7"/></radialGradient><linearGradient id="gilt" gradientUnits="userSpaceOnUse" x1="0" y1="0" x2="1200" y2="0"><stop offset="0" stop-color="#ad8e44"/><stop offset=".40" stop-color="#e2b849"/><stop offset=".50" stop-color="#f3dc98"/><stop offset=".60" stop-color="#e2b849"/><stop offset="1" stop-color="#ad8e44"/><animateTransform attributeName="gradientTransform" type="translate" values="-1200;1200;1200" keyTimes="0;.55;1" dur="9s" repeatCount="indefinite"/></linearGradient><filter id="glow" x="-20%" y="-40%" width="140%" height="180%"><feGaussianBlur stdDeviation="18" result="b"/><feColorMatrix in="b" type="matrix" values="0 0 0 0 .89  0 0 0 0 .72  0 0 0 0 .29  0 0 0 .55 0"/></filter><clipPath id="panel"><rect x="0" y="0" width="1200" height="600" rx="26"/></clipPath></defs><rect x="0" y="0" width="1200" height="600" rx="26" fill="#0d0c0a"/><g clip-path="url(#panel)"><rect width="1200" height="600" fill="url(#torch)" class="flicker"/><rect width="1200" height="600" fill="url(#sebka)" mask="url(#sebkaMask)" class="breathe"/><rect width="1200" height="600" fill="url(#vignette)"/><circle cx="410" cy="315" r="1.6" fill="#f3dc98" class="mote" style="animation-duration:7.6s;animation-delay:-8.0s"/><circle cx="455" cy="287" r="1.4" fill="#f3dc98" class="mote" style="animation-duration:7.3s;animation-delay:-6.5s"/><circle cx="135" cy="297" r="1.3" fill="#f3dc98" class="mote" style="animation-duration:13.6s;animation-delay:-1.9s"/><circle cx="301" cy="458" r="2.0" fill="#f3dc98" class="mote" style="animation-duration:11.6s;animation-delay:-6.0s"/><circle cx="1114" cy="284" r="1.9" fill="#f3dc98" class="mote" style="animation-duration:9.3s;animation-delay:-2.2s"/><circle cx="187" cy="363" r="1.8" fill="#f3dc98" class="mote" style="animation-duration:8.4s;animation-delay:-8.7s"/><circle cx="750" cy="382" r="1.5" fill="#f3dc98" class="mote" style="animation-duration:7.5s;animation-delay:-0.9s"/><circle cx="282" cy="474" r="1.3" fill="#f3dc98" class="mote" style="animation-duration:9.5s;animation-delay:-8.8s"/><circle cx="549" cy="360" r="1.8" fill="#f3dc98" class="mote" style="animation-duration:12.6s;animation-delay:-3.7s"/><circle cx="680" cy="428" r="1.9" fill="#f3dc98" class="mote" style="animation-duration:12.8s;animation-delay:-4.3s"/><circle cx="1119" cy="305" r="1.3" fill="#f3dc98" class="mote" style="animation-duration:13.1s;animation-delay:-2.3s"/><circle cx="588" cy="282" r="1.6" fill="#f3dc98" class="mote" style="animation-duration:13.1s;animation-delay:-8.6s"/><circle cx="1006" cy="364" r="1.7" fill="#f3dc98" class="mote" style="animation-duration:11.8s;animation-delay:-8.7s"/><circle cx="553" cy="522" r="2.0" fill="#f3dc98" class="mote" style="animation-duration:10.8s;animation-delay:-10.0s"/><circle cx="126" cy="480" r="1.6" fill="#f3dc98" class="mote" style="animation-duration:14.9s;animation-delay:-12.3s"/><circle cx="367" cy="386" r="1.6" fill="#f3dc98" class="mote" style="animation-duration:7.2s;animation-delay:-6.9s"/><circle cx="241" cy="305" r="0.8" fill="#f3dc98" class="mote" style="animation-duration:13.1s;animation-delay:-1.9s"/><circle cx="327" cy="387" r="1.9" fill="#f3dc98" class="mote" style="animation-duration:7.6s;animation-delay:-6.7s"/><circle cx="653" cy="535" r="1.8" fill="#f3dc98" class="mote" style="animation-duration:13.9s;animation-delay:-4.2s"/><circle cx="509" cy="378" r="1.9" fill="#f3dc98" class="mote" style="animation-duration:14.7s;animation-delay:-2.3s"/><circle cx="250" cy="340" r="1.0" fill="#f3dc98" class="mote" style="animation-duration:10.9s;animation-delay:-8.8s"/><circle cx="344" cy="271" r="1.3" fill="#f3dc98" class="mote" style="animation-duration:10.0s;animation-delay:-8.5s"/><circle cx="1089" cy="477" r="1.4" fill="#f3dc98" class="mote" style="animation-duration:11.9s;animation-delay:-10.1s"/><circle cx="118" cy="540" r="1.8" fill="#f3dc98" class="mote" style="animation-duration:14.0s;animation-delay:-12.0s"/><circle cx="484" cy="390" r="0.8" fill="#f3dc98" class="mote" style="animation-duration:12.1s;animation-delay:-0.9s"/><circle cx="133" cy="333" r="0.9" fill="#f3dc98" class="mote" style="animation-duration:9.7s;animation-delay:-0.8s"/><path d="M36 70V36H70" fill="none" stroke="#ad8e44" stroke-opacity=".55"/><path d="M1164 70V36H1130" fill="none" stroke="#ad8e44" stroke-opacity=".55"/><path d="M36 530V564H70" fill="none" stroke="#ad8e44" stroke-opacity=".55"/><path d="M1164 530V564H1130" fill="none" stroke="#ad8e44" stroke-opacity=".55"/><path d="M78 81Q77.5 81 77.1 80.7Q76.7 80.4 76.2 79.9Q75.8 79.4 75.5 79.1Q75.2 78.8 75 78.8Q74.5 78.8 74.2 79.3Q73.9 79.7 73.7 80.9L72.8 80.7Q73 79.3 73.6 78.6Q74.1 77.8 75 77.8Q75.5 77.8 75.9 78.1Q76.3 78.4 76.7 78.9Q77.2 79.5 77.5 79.8Q77.8 80 78 80Q78.5 80 78.8 79.5Q79.1 78.9 79.3 78L80.2 78.2Q79.9 79.8 79.3 80.4Q78.8 81 78 81ZM83.8 86.1 89.1 72.6H90.2L84.9 86.1ZM97.9 84Q97 84 96.6 83.5Q96.2 83 96.2 82.2V77.3H93.6V76.3H95.5Q95.9 76.3 96.1 76.1Q96.2 75.9 96.2 75.6V73.5H97.4V76.3H100.9V77.3H97.4V83H100.9V84ZM105 72.9H106.2V77.5H106.2Q106.3 77.2 106.5 77Q106.7 76.7 107 76.5Q107.2 76.3 107.6 76.2Q108 76.1 108.4 76.1Q109.7 76.1 110.4 76.9Q111.1 77.6 111.1 79V84H109.9V79.2Q109.9 78.2 109.5 77.7Q109 77.1 108.1 77.1Q107.7 77.1 107.4 77.2Q107 77.3 106.8 77.5Q106.5 77.7 106.3 78Q106.2 78.3 106.2 78.6V84H105ZM118.6 84.2Q117.8 84.2 117.1 83.9Q116.5 83.6 116 83.1Q115.5 82.5 115.3 81.8Q115 81.1 115 80.1Q115 79.2 115.3 78.5Q115.5 77.7 116 77.2Q116.5 76.7 117.1 76.4Q117.8 76.1 118.6 76.1Q119.3 76.1 120 76.4Q120.6 76.7 121.1 77.2Q121.5 77.7 121.8 78.3Q122 79 122 79.9V80.4H116.3V80.8Q116.3 81.3 116.4 81.7Q116.6 82.2 116.9 82.5Q117.2 82.8 117.7 83Q118.1 83.1 118.6 83.1Q119.4 83.1 120 82.8Q120.6 82.4 120.9 81.8L121.7 82.4Q121.4 83.2 120.6 83.7Q119.8 84.2 118.6 84.2ZM118.6 77.1Q118.1 77.1 117.6 77.2Q117.2 77.4 116.9 77.7Q116.6 78.1 116.4 78.5Q116.3 78.9 116.3 79.4V79.5H120.7V79.4Q120.7 78.9 120.5 78.4Q120.4 78 120.1 77.7Q119.8 77.4 119.4 77.2Q119 77.1 118.6 77.1ZM126.8 80.1V78.8H131.2V80.1ZM139.8 84.2Q138.9 84.2 138.3 83.9Q137.6 83.6 137.2 83.1Q136.7 82.5 136.5 81.8Q136.3 81 136.3 80.1Q136.3 79.2 136.5 78.5Q136.7 77.7 137.2 77.2Q137.6 76.7 138.3 76.4Q138.9 76.1 139.8 76.1Q140.9 76.1 141.6 76.6Q142.3 77.1 142.6 77.9L141.7 78.4Q141.4 77.8 141 77.4Q140.5 77.1 139.8 77.1Q139.2 77.1 138.8 77.3Q138.4 77.5 138.1 77.8Q137.8 78.1 137.7 78.5Q137.6 79 137.6 79.5V80.8Q137.6 81.3 137.7 81.7Q137.8 82.2 138.1 82.5Q138.4 82.8 138.8 83Q139.2 83.1 139.8 83.1Q140.6 83.1 141.1 82.8Q141.6 82.4 141.9 81.8L142.7 82.4Q142.4 83.2 141.7 83.7Q140.9 84.2 139.8 84.2ZM152.9 84Q152.2 84 151.9 83.6Q151.6 83.3 151.5 82.7H151.5Q151.2 83.4 150.7 83.8Q150.1 84.2 149.1 84.2Q147.9 84.2 147.2 83.6Q146.5 82.9 146.5 81.8Q146.5 80.7 147.3 80.2Q148.1 79.6 149.8 79.6H151.5V78.8Q151.5 78 151 77.5Q150.5 77.1 149.6 77.1Q148.8 77.1 148.3 77.4Q147.9 77.7 147.6 78.2L146.7 77.6Q146.9 77.3 147.2 77.1Q147.4 76.8 147.8 76.6Q148.2 76.3 148.6 76.2Q149.1 76.1 149.7 76.1Q151.1 76.1 151.9 76.8Q152.7 77.5 152.7 78.7V83H153.8V84ZM149.4 83.2Q149.8 83.2 150.2 83.1Q150.6 83 150.9 82.8Q151.2 82.6 151.3 82.3Q151.5 82 151.5 81.8V80.5H149.8Q148.7 80.5 148.2 80.8Q147.8 81.1 147.8 81.6V82Q147.8 82.6 148.2 82.9Q148.6 83.2 149.4 83.2ZM159.7 84 157 76.3H158.2L159.3 79.5L160.5 83H160.5L161.7 79.5L162.9 76.3H164L161.3 84ZM171.1 84.2Q170.3 84.2 169.6 83.9Q169 83.6 168.5 83.1Q168 82.5 167.8 81.8Q167.5 81.1 167.5 80.1Q167.5 79.2 167.8 78.5Q168 77.7 168.5 77.2Q169 76.7 169.6 76.4Q170.3 76.1 171.1 76.1Q171.8 76.1 172.5 76.4Q173.1 76.7 173.6 77.2Q174 77.7 174.3 78.3Q174.5 79 174.5 79.9V80.4H168.8V80.8Q168.8 81.3 168.9 81.7Q169.1 82.2 169.4 82.5Q169.7 82.8 170.2 83Q170.6 83.1 171.1 83.1Q171.9 83.1 172.5 82.8Q173.1 82.4 173.4 81.8L174.2 82.4Q173.9 83.2 173.1 83.7Q172.3 84.2 171.1 84.2ZM171.1 77.1Q170.6 77.1 170.1 77.2Q169.7 77.4 169.4 77.7Q169.1 78.1 168.9 78.5Q168.8 78.9 168.8 79.4V79.5H173.2V79.4Q173.2 78.9 173 78.4Q172.9 78 172.6 77.7Q172.3 77.4 171.9 77.2Q171.5 77.1 171.1 77.1Z" fill="#8f8c85"/><circle class="pulse" cx="899.4" cy="79" r="4.5" fill="#e2b849"/><path d="M918.7 73.5H922.3Q923.6 73.5 924.4 74.3Q925.2 75 925.2 76.2Q925.2 77.2 924.7 77.7Q924.2 78.3 923.5 78.5V78.5Q924.4 78.7 925 79.3Q925.5 79.9 925.5 81Q925.5 81.6 925.3 82.2Q925.1 82.7 924.7 83.1Q924.4 83.5 923.8 83.8Q923.3 84 922.7 84H918.7ZM922.4 82.9Q923.2 82.9 923.7 82.5Q924.2 82.1 924.2 81.3V80.7Q924.2 79.9 923.7 79.5Q923.2 79.1 922.4 79.1H920V82.9ZM922.1 78.1Q922.9 78.1 923.4 77.7Q923.8 77.4 923.8 76.7V76.1Q923.8 75.3 923.4 75Q922.9 74.6 922.1 74.6H920V78.1ZM931.1 73.5V79.8Q931.1 80.6 931.1 81.2Q931.1 81.8 931.3 82.2Q931.5 82.6 932 82.9Q932.4 83.1 933.1 83.1Q933.8 83.1 934.2 82.9Q934.7 82.6 934.9 82.2Q935.1 81.8 935.1 81.2Q935.1 80.6 935.1 79.8V73.5H936.4V79.5Q936.4 80.7 936.3 81.6Q936.2 82.4 935.8 83Q935.5 83.6 934.8 83.9Q934.2 84.2 933.1 84.2Q932 84.2 931.4 83.9Q930.7 83.6 930.4 83Q930 82.4 929.9 81.6Q929.8 80.7 929.8 79.5V73.5ZM941.1 84V83H943.7V74.5H941.1V73.5H947.5V74.5H944.9V83H947.5V84ZM952.8 84V73.5H954.1V82.9H959V84ZM963.6 73.5H966.5Q968.5 73.5 969.4 74.8Q970.4 76.2 970.4 78.8Q970.4 81.4 969.4 82.7Q968.5 84 966.5 84H963.6ZM966.5 82.9Q967.7 82.9 968.4 82Q969 81.2 969 79.6V78Q969 76.4 968.4 75.5Q967.7 74.6 966.5 74.6H964.9V82.9ZM974.7 84V83H977.3V74.5H974.7V73.5H981.1V74.5H978.5V83H981.1V84ZM987 75.2H986.9V84H985.8V73.5H987.6L991.2 82.3H991.3V73.5H992.4V84H990.6ZM1002.5 82.6H1002.4Q1002.2 82.9 1002.1 83.2Q1001.9 83.5 1001.6 83.7Q1001.3 83.9 1000.9 84Q1000.6 84.2 1000 84.2Q998.3 84.2 997.5 82.8Q996.6 81.4 996.6 78.8Q996.6 76.1 997.6 74.7Q998.5 73.3 1000.4 73.3Q1001.1 73.3 1001.6 73.5Q1002.2 73.7 1002.6 74.1Q1003 74.4 1003.2 74.8Q1003.5 75.2 1003.6 75.6L1002.5 76.1Q1002.4 75.8 1002.2 75.5Q1002.1 75.2 1001.8 74.9Q1001.6 74.7 1001.2 74.6Q1000.9 74.4 1000.4 74.4Q999.2 74.4 998.6 75.4Q998 76.3 998 77.9V79.5Q998 80.3 998.1 81Q998.2 81.6 998.5 82.1Q998.8 82.6 999.2 82.9Q999.7 83.1 1000.3 83.1Q1001.3 83.1 1001.9 82.5Q1002.5 81.9 1002.5 80.9V79.8H1000.3V78.8H1003.6V84H1002.5ZM1019.5 84V83H1022.1V74.5H1019.5V73.5H1025.9V74.5H1023.3V83H1025.9V84ZM1031.8 75.2H1031.7V84H1030.6V73.5H1032.4L1036 82.3H1036.1V73.5H1037.2V84H1035.4ZM1056.3 84.2Q1054.9 84.2 1054 83.7Q1053.1 83.1 1052.5 82.3L1053.4 81.6Q1054 82.3 1054.7 82.7Q1055.4 83.1 1056.3 83.1Q1057.5 83.1 1058.1 82.6Q1058.7 82 1058.7 81.1Q1058.7 80.3 1058.2 79.9Q1057.8 79.5 1056.7 79.3L1055.5 79.1Q1054.8 79 1054.3 78.7Q1053.7 78.4 1053.4 78.1Q1053.1 77.7 1053 77.2Q1052.8 76.8 1052.8 76.3Q1052.8 74.8 1053.8 74.1Q1054.7 73.3 1056.3 73.3Q1057.6 73.3 1058.5 73.8Q1059.3 74.2 1059.8 75L1059 75.7Q1058.5 75.2 1057.9 74.8Q1057.3 74.4 1056.3 74.4Q1055.3 74.4 1054.7 74.9Q1054.1 75.3 1054.1 76.2Q1054.1 76.9 1054.5 77.4Q1055 77.8 1056.1 78L1057.2 78.2Q1058 78.3 1058.5 78.6Q1059 78.9 1059.3 79.3Q1059.7 79.6 1059.8 80.1Q1059.9 80.6 1059.9 81.1Q1059.9 82.5 1059 83.4Q1058 84.2 1056.3 84.2ZM1064.3 84V83H1066.9V74.5H1064.3V73.5H1070.7V74.5H1068.1V83H1070.7V84ZM1076 84V73.5H1077.3V82.9H1082.2V84ZM1086.8 84V73.5H1093.2V74.6H1088V78.2H1093V79.2H1088V82.9H1093.2V84ZM1099 75.2H1098.9V84H1097.8V73.5H1099.6L1103.2 82.3H1103.3V73.5H1104.4V84H1102.6ZM1112.6 84.2Q1110.7 84.2 1109.8 82.8Q1108.9 81.4 1108.9 78.8Q1108.9 76.1 1109.8 74.7Q1110.7 73.3 1112.6 73.3Q1113.4 73.3 1113.9 73.5Q1114.4 73.7 1114.8 74.1Q1115.2 74.4 1115.4 74.8Q1115.7 75.2 1115.9 75.6L1114.8 76.1Q1114.7 75.8 1114.5 75.5Q1114.3 75.2 1114 74.9Q1113.8 74.7 1113.5 74.6Q1113.1 74.4 1112.6 74.4Q1111.4 74.4 1110.8 75.4Q1110.2 76.3 1110.2 77.9V79.6Q1110.2 81.2 1110.8 82.1Q1111.4 83.1 1112.6 83.1Q1113.1 83.1 1113.5 82.9Q1113.8 82.8 1114 82.6Q1114.3 82.3 1114.5 82Q1114.7 81.7 1114.8 81.4L1115.9 81.9Q1115.7 82.3 1115.4 82.7Q1115.2 83.1 1114.8 83.5Q1114.4 83.8 1113.9 84Q1113.4 84.2 1112.6 84.2ZM1120.3 84V73.5H1126.8V74.6H1121.6V78.2H1126.6V79.2H1121.6V82.9H1126.8V84Z" fill="#8f8c85"/><g class="rise d1"><path d="M337.8 281.4 339.1 283.7 387 293.4C371.1 300.9 347.4 310.4 326.8 310.4C308.8 310.4 292.1 303.9 292.1 280.3C292.1 272.2 294.8 261.1 297.8 252.2H295.3C289.8 266.7 286.5 281.3 286.5 294.7C286.5 322.9 301.3 335.7 325 335.7C345.5 335.7 367.9 326.3 384.6 309L388.9 294.8C394.3 276.1 385.3 271.1 353.4 265.2L342.7 263ZM347 362.5C347.2 362.4 347.2 360.5 347 360.3L334.9 348.2L324 359.1L313 348.2L300.7 360.5V362.4L313 374.7L324 363.8L334.9 374.7ZM442.7 302C447.7 302 450.3 299.3 450.3 294.4V276.4C430.4 276.4 421.5 273.3 420.7 260.8C420.7 260 420.7 259.3 420.7 258.3H432.7H432.5H434.4L440.5 241.6L439.7 239.9H432.7C405.2 239.9 390.4 220.1 373.7 220.1C365.9 220.1 358.7 224.5 354.7 228.1L348.6 244L349.9 245.2C353.3 244.7 359.4 243.7 363.9 243.7C375.3 243.7 388.5 250.7 405.4 255C397.1 260 386.4 263 371.4 263H342.7L363.1 285.2C371.2 282.8 378.1 278.8 385.9 272.4C394.5 265.2 401.2 258.3 414.3 258.3H416.6C415.2 263.8 414.1 269.7 414.1 275.8C414.1 293.4 423.5 302 442.7 302ZM422.6 330.1C422.7 329.9 422.7 327.9 422.6 327.7L409 314.2L395.4 327.9V329.9L409 343.7ZM450.5 276.4C445.5 276.4 443 278.9 443 283.9V302C450.8 302 460.3 300 466.4 295.9L471.1 278.3C470.8 296.5 481.4 302 493.8 302C498.8 302 501.5 299.3 501.5 294.4V276.4C489.2 276.4 479.8 272.7 479.2 260.3L478.7 250.2H475.9L472.9 264.1C472 268 471.5 271.4 471.2 274.5C466.7 275.3 457.6 276.4 450.5 276.4ZM485.6 223.1C485.7 222.9 485.7 220.9 485.6 220.7L472 207.2L458.4 220.9V222.9L472 236.6ZM501.3 276.4C496.5 276.4 494 278.9 494 283.7V302H505.7C521.5 302 536.7 300 548.4 294.8L553.1 282.8C563.4 255.4 545.9 239 520.5 225.2L510.8 220.1L576.8 204.8L589.6 183.3L588.1 181.1L516.3 199.2L502.1 237.4L511.6 242.4C532.1 253.5 554.2 267.2 553.4 273.1C539.7 275.2 524.7 276.4 507.6 276.4ZM584.3 236.2H581.7L572.5 258C580.4 266.9 590.2 277.5 595.1 287C589 305.3 568.3 316.8 540.6 320.7V323.4L572.5 337.9C587.1 321.2 598.2 297.6 598.2 276.3C598.2 274.1 598 271.7 597.7 269.6L602.1 259.6ZM631 195.3H628V195.5V195.3L615.4 211.2L620.2 304.5H623.2L630.2 279.8C631.7 274.5 632.5 269.2 632.5 263.8V232L638.5 225.1ZM606.5 191.1 607.4 192.6 636.4 184.2 641.6 173.8 640.3 172.2 633.9 173.6C631.7 173.9 629.9 174.1 628.2 174.1C618.2 174.1 614.4 168.8 614.9 166.4C615.4 164.6 619.7 162.7 623.3 162.7C628.2 162.7 631 165.8 633.1 169.1L635.3 168.6L635.6 167.8C639.2 160 635.8 151.6 627.7 151.6C620.4 151.6 615.4 158.9 613.2 163.9C610.1 170.8 610.7 177 615.5 181.4C614.7 182.2 614 183 613 183.9ZM690.6 263.6H687.9C687 271.3 686.3 280.5 686.3 284.7C686.3 298.7 692.6 302.6 702.4 302.6C712.1 302.6 723.2 298.6 730 294.4L735.5 275.8L737.7 281.1C743.9 296.5 748.7 302 758.1 302C763.1 302 765.8 299.3 765.8 294.4V276.4C755.9 276.4 751.9 275.2 748.9 266.3L733.6 221.3H730.8L721 239.6L734.7 273.8C727.7 275.2 717.9 277.2 707.7 277.2C696 277.2 692 274.4 690.6 263.6ZM765.9 276.4C760.9 276.4 758.4 278.9 758.4 283.9V302C766.2 302 775.7 300 781.8 295.9L786.5 278.3C786.2 296.5 796.8 302 809.3 302C814.3 302 816.9 299.3 816.9 294.4V276.4C804.6 276.4 795.2 272.7 794.6 260.3L794.1 250.2H791.3L788.4 264.1C787.4 268 787 271.4 786.7 274.5C782.1 275.3 773.1 276.4 765.9 276.4ZM804.7 328.8C804.9 328.7 804.9 326.8 804.7 326.6L792.6 314.5L781.7 325.4L770.7 314.5L758.4 326.8V328.7L770.7 341L781.7 330.1L792.6 341ZM838 184.4H835.3V184.5V184.4L823.6 199.7L827.7 275.6C824.3 276.1 820 276.4 816.9 276.4C813 276.4 809.4 280 809.4 283.9V302C816.9 302 824.1 298.1 827.2 295.8C832.8 281.7 840.3 252.1 840.3 234.6V220.7L845.3 214.5ZM882 337.6C899.3 318.7 909.3 300.3 909.3 277C909.3 254.6 899.9 232.9 882 232.9C867.6 232.9 854.4 246.8 854.4 269.1C854.4 286.9 862.8 295.3 875 295.3C884.6 295.3 898.2 290.5 906.3 281.3C906.3 282 906.5 282.7 906.5 283.4C906.5 298.9 886.5 315.9 850.1 320.3V323.1ZM877.8 272.2C863.9 272.2 856.9 269.7 856.9 264.9C856.9 259.9 864.7 256.6 872.8 256.6C883.1 256.6 894.6 261.9 901.2 269.9C896.2 271 887.3 272.2 877.8 272.2Z" fill="#e2b849" filter="url(#glow)" class="flicker"/><path d="M337.8 281.4 339.1 283.7 387 293.4C371.1 300.9 347.4 310.4 326.8 310.4C308.8 310.4 292.1 303.9 292.1 280.3C292.1 272.2 294.8 261.1 297.8 252.2H295.3C289.8 266.7 286.5 281.3 286.5 294.7C286.5 322.9 301.3 335.7 325 335.7C345.5 335.7 367.9 326.3 384.6 309L388.9 294.8C394.3 276.1 385.3 271.1 353.4 265.2L342.7 263ZM347 362.5C347.2 362.4 347.2 360.5 347 360.3L334.9 348.2L324 359.1L313 348.2L300.7 360.5V362.4L313 374.7L324 363.8L334.9 374.7ZM442.7 302C447.7 302 450.3 299.3 450.3 294.4V276.4C430.4 276.4 421.5 273.3 420.7 260.8C420.7 260 420.7 259.3 420.7 258.3H432.7H432.5H434.4L440.5 241.6L439.7 239.9H432.7C405.2 239.9 390.4 220.1 373.7 220.1C365.9 220.1 358.7 224.5 354.7 228.1L348.6 244L349.9 245.2C353.3 244.7 359.4 243.7 363.9 243.7C375.3 243.7 388.5 250.7 405.4 255C397.1 260 386.4 263 371.4 263H342.7L363.1 285.2C371.2 282.8 378.1 278.8 385.9 272.4C394.5 265.2 401.2 258.3 414.3 258.3H416.6C415.2 263.8 414.1 269.7 414.1 275.8C414.1 293.4 423.5 302 442.7 302ZM422.6 330.1C422.7 329.9 422.7 327.9 422.6 327.7L409 314.2L395.4 327.9V329.9L409 343.7ZM450.5 276.4C445.5 276.4 443 278.9 443 283.9V302C450.8 302 460.3 300 466.4 295.9L471.1 278.3C470.8 296.5 481.4 302 493.8 302C498.8 302 501.5 299.3 501.5 294.4V276.4C489.2 276.4 479.8 272.7 479.2 260.3L478.7 250.2H475.9L472.9 264.1C472 268 471.5 271.4 471.2 274.5C466.7 275.3 457.6 276.4 450.5 276.4ZM485.6 223.1C485.7 222.9 485.7 220.9 485.6 220.7L472 207.2L458.4 220.9V222.9L472 236.6ZM501.3 276.4C496.5 276.4 494 278.9 494 283.7V302H505.7C521.5 302 536.7 300 548.4 294.8L553.1 282.8C563.4 255.4 545.9 239 520.5 225.2L510.8 220.1L576.8 204.8L589.6 183.3L588.1 181.1L516.3 199.2L502.1 237.4L511.6 242.4C532.1 253.5 554.2 267.2 553.4 273.1C539.7 275.2 524.7 276.4 507.6 276.4ZM584.3 236.2H581.7L572.5 258C580.4 266.9 590.2 277.5 595.1 287C589 305.3 568.3 316.8 540.6 320.7V323.4L572.5 337.9C587.1 321.2 598.2 297.6 598.2 276.3C598.2 274.1 598 271.7 597.7 269.6L602.1 259.6ZM631 195.3H628V195.5V195.3L615.4 211.2L620.2 304.5H623.2L630.2 279.8C631.7 274.5 632.5 269.2 632.5 263.8V232L638.5 225.1ZM606.5 191.1 607.4 192.6 636.4 184.2 641.6 173.8 640.3 172.2 633.9 173.6C631.7 173.9 629.9 174.1 628.2 174.1C618.2 174.1 614.4 168.8 614.9 166.4C615.4 164.6 619.7 162.7 623.3 162.7C628.2 162.7 631 165.8 633.1 169.1L635.3 168.6L635.6 167.8C639.2 160 635.8 151.6 627.7 151.6C620.4 151.6 615.4 158.9 613.2 163.9C610.1 170.8 610.7 177 615.5 181.4C614.7 182.2 614 183 613 183.9ZM690.6 263.6H687.9C687 271.3 686.3 280.5 686.3 284.7C686.3 298.7 692.6 302.6 702.4 302.6C712.1 302.6 723.2 298.6 730 294.4L735.5 275.8L737.7 281.1C743.9 296.5 748.7 302 758.1 302C763.1 302 765.8 299.3 765.8 294.4V276.4C755.9 276.4 751.9 275.2 748.9 266.3L733.6 221.3H730.8L721 239.6L734.7 273.8C727.7 275.2 717.9 277.2 707.7 277.2C696 277.2 692 274.4 690.6 263.6ZM765.9 276.4C760.9 276.4 758.4 278.9 758.4 283.9V302C766.2 302 775.7 300 781.8 295.9L786.5 278.3C786.2 296.5 796.8 302 809.3 302C814.3 302 816.9 299.3 816.9 294.4V276.4C804.6 276.4 795.2 272.7 794.6 260.3L794.1 250.2H791.3L788.4 264.1C787.4 268 787 271.4 786.7 274.5C782.1 275.3 773.1 276.4 765.9 276.4ZM804.7 328.8C804.9 328.7 804.9 326.8 804.7 326.6L792.6 314.5L781.7 325.4L770.7 314.5L758.4 326.8V328.7L770.7 341L781.7 330.1L792.6 341ZM838 184.4H835.3V184.5V184.4L823.6 199.7L827.7 275.6C824.3 276.1 820 276.4 816.9 276.4C813 276.4 809.4 280 809.4 283.9V302C816.9 302 824.1 298.1 827.2 295.8C832.8 281.7 840.3 252.1 840.3 234.6V220.7L845.3 214.5ZM882 337.6C899.3 318.7 909.3 300.3 909.3 277C909.3 254.6 899.9 232.9 882 232.9C867.6 232.9 854.4 246.8 854.4 269.1C854.4 286.9 862.8 295.3 875 295.3C884.6 295.3 898.2 290.5 906.3 281.3C906.3 282 906.5 282.7 906.5 283.4C906.5 298.9 886.5 315.9 850.1 320.3V323.1ZM877.8 272.2C863.9 272.2 856.9 269.7 856.9 264.9C856.9 259.9 864.7 256.6 872.8 256.6C883.1 256.6 894.6 261.9 901.2 269.9C896.2 271 887.3 272.2 877.8 272.2Z" fill="url(#gilt)"/></g><path d="M454.3 368 456.8 355.8H457L459.4 368H463.1L466.9 352.6H464.1L461.4 365.2H461.3L458.8 352.6H455L452.6 365.2H452.5L449.9 352.6H447L450.8 368ZM478.3 368 479.5 364.4H485.8L487 368H490L484.5 352.6H480.7L475.4 368ZM482.6 354.8H482.7L485.1 362.1H480.2ZM511.1 368V365.6H504.1V352.6H501.3V368ZM532.8 368V365.6H525.4V361.4H532.2V359.1H525.4V355H532.8V352.6H522.5V368ZM555.1 368V365.6H547.7V361.4H554.6V359.1H547.7V355H555.1V352.6H544.9V368ZM572.4 368C577.2 368 579.5 365.4 579.5 361.2V359.4C579.5 355.2 577.2 352.6 572.4 352.6H567.2V368ZM570.1 355H572.4C575.2 355 576.5 356.5 576.5 359.4V361.2C576.5 364.1 575.2 365.6 572.4 365.6H570.1ZM607.3 368 608.5 364.4H614.8L616 368H619L613.6 352.6H609.8L604.4 368ZM611.6 354.8H611.7L614.1 362.1H609.2ZM633.1 368V361.3H633.3C635.6 362.8 637.5 364.8 639.1 368H642.3C641 365.3 639.2 363.1 637.5 361.8V361.7C639.9 361.3 642 360 642 357.2C642 354.4 640.1 352.6 636.5 352.6H630.3V368ZM633.1 355H636.4C638.3 355 639.1 355.9 639.1 357.2C639.1 358.7 638.2 359.7 636.3 359.7H633.1ZM656.9 368V361.2C658.8 361.6 660.5 363.3 662 365.7L663.5 368H666.9L664.8 364.6C663.3 362.3 661.6 360.5 659.5 359.7L666.7 352.6H663.4L656.9 359.1V352.6H654.1V368ZM679.6 368 680.8 364.4H687.2L688.4 368H691.3L685.9 352.6H682.1L676.8 368ZM684 354.8H684.1L686.5 362.1H681.5ZM705.4 368V355.6H705.5L710.8 368H715.1V352.6H712.3V364.9H712.2L707 352.6H702.6V368ZM731.3 368.3C734.5 368.3 736.1 366.2 736.1 362.8V352.6H727.8V355H733.2V362.7C733.2 364.7 732.7 365.8 731.1 365.8C729.8 365.8 728.7 364.9 728 363.9L726.3 365.7C727.4 367.2 728.9 368.3 731.3 368.3ZM751.6 368V352.6H748.7V368Z" fill="#aba9a4" class="rise d2"/><rect x="510.0" y="400" width="180" height="1.5" fill="#e2b849" opacity=".7" class="draw"/><path d="M399.2 469.3 399.3 469.8 410.9 472.6C407.4 475.1 401.6 478.3 395.5 478.3C391.3 478.3 386.2 476.9 386.2 470.5C386.2 468.4 386.8 465.8 387.5 463.4H387C385.9 466.3 385 469.5 385 472.7C385 478.6 388.1 483 395 483C399.4 483 405.5 481.2 410.5 475.8L411.5 472.4C412.4 469.3 409.2 467.9 403.9 466.8L400.3 466ZM399.8 490.3C399.8 490.3 399.8 489.9 399.8 489.9L397.1 487.2L394.5 489.8L392 487.2L389.3 489.9V490.3L392 493.1L394.5 490.5L397.1 493.1ZM408.2 442.9H407.6V442.9L405.4 446L406.1 465.7C403.9 466 402.4 466 400.3 466L402.6 469.3C403.9 469.1 405.3 468.7 406.3 467.9C407.6 463.2 408.5 458.5 408.5 453.5V451.8L409.5 450.4ZM421.8 474C423.2 474 423.9 473.3 423.9 471.9V469.2C420.9 469.2 418.7 469 418.7 466V442.9H418.2L415.5 446.9L416.4 465.8C416.7 471.4 418.3 474 421.8 474ZM423.9 469.2C422.8 469.2 421.9 469.3 421.9 470.7V474C428.5 474 435.7 473.1 441 471.5L443 467.7L442.7 467.3L440.9 467.7C439.2 468.2 436 468.4 434.3 468.4C426.8 468.4 425.3 464.9 425.3 463.5C425.3 461.9 427.7 459.8 431.9 459.8C435.1 459.8 437.7 461 439.2 462.5L439.6 462.2C439.1 460.3 437.4 455.4 432.5 455.4C427.5 455.4 424.7 460.3 424.7 464.3C424.7 466.4 425.5 468 426.7 469.2C425.8 469.2 424.9 469.2 423.9 469.2ZM482 457.2 480.3 461.1C481.8 463.2 483.7 466.4 484.2 468.2C481.3 469 474 469.9 468.2 469.9C461.8 469.9 457.5 468.8 457.5 463.3C457.5 462.3 457.6 461 457.9 459.3H457.4C456.4 462.5 456.2 465 456.2 466.5C456.2 472.4 459.8 474.6 466.9 474.6C472.8 474.6 480.2 473.1 483.2 472.2L484.5 468.8C485 467.4 485.2 465.9 485.1 464.4L485.8 462.5L482.5 457.2ZM475.4 456.4C475.4 456.4 475.4 456 475.4 456L472.7 453.3L470.2 455.8L467.7 453.3L465 456V456.4L467.7 459.1L470.2 456.6L472.7 459.1ZM504 474C505.3 474 506 473.3 506 471.9V469.2H502.5C502.5 462.1 499 458.9 495.5 458.9C492.2 458.9 489 462 489 467.5C489 471.3 490.8 474 494.2 474H501.5C499.6 478.3 493.7 481.9 488.2 482V482.5L495.8 485.1C498.4 482 501 478.5 502 474ZM489.5 466.5C489.5 464.3 491.4 463.3 493.9 463.3C496.9 463.3 500.6 465.3 501.6 469.2H494.2C491.1 469.2 489.5 468 489.5 466.5ZM513.5 465.2 513.4 462.9H512.7L512.3 466.6C512.3 467.2 512.3 467.8 512.3 468.3C510.8 468.7 508.1 469.2 506.1 469.2C504.7 469.2 504 469.9 504 471.3V474C506.9 474 509.3 473.3 511.3 472.2L512.3 469C512.7 472.3 514.9 474 519.7 474C524.7 474 530.1 473.4 534.4 472.2C536.2 473.3 538.3 474 540.9 474C542.3 474 543 473.3 543 471.9V469.2C540.9 469.2 539.2 469 537.9 468.7L538.7 467.2C540.7 463.7 537.8 457.8 531.6 457.8C526 457.8 521.1 462.7 516.8 468.8C514.7 468.4 513.5 467.4 513.5 465.2ZM517.5 469C520.9 464.3 524.6 461.8 529.1 461.8C534.1 461.8 536.8 464.9 538.1 467.2C534.3 468.5 528.5 469.2 522.1 469.2H521.9C520.2 469.2 518.7 469.2 517.5 469ZM541 474C544.4 474 547.1 473.2 549.5 472.1L550.6 468.9C551.2 467.4 551.3 466.1 551.2 464.7L552 462.8L548.7 457.5H548.1L546.5 461.5C548.3 464.1 550.1 467 550.3 468.3C548 468.8 545.3 469.2 543 469.2C541.7 469.2 541 469.9 541 471.3ZM548.1 481.1V480.7L545.3 477.9L542.5 480.7V481.1L545.3 484ZM567.2 465.9 571 472.2C569.7 476.1 566.4 481.1 558.2 481.5V482L565.8 484.6C568.7 481.1 571.1 476.6 571.7 472.3C572.9 473.6 573.8 474 574.9 474C576.2 474 576.9 473.3 576.9 471.9V469.2C573.8 469.2 573 469 571.7 466.6L569.3 462.1H568.8ZM590 436.4 589.2 438C589.9 439 590.5 440.2 590.6 441C590.1 441 589.4 441.1 589.2 441.1C587.5 441 587.2 439.9 587.3 438H587C586.6 439.5 585.8 441.2 583.9 441.2C582.7 441.2 582 440.5 582.4 438.4H582.1L581.6 439.9C581.1 441.7 581.7 443.4 583.4 443.4C585 443.4 586.1 441.9 586.4 440.6C586.3 441.6 586.9 443 588.4 443C589.9 443 591.2 441.5 591.2 439.6C591.2 438.4 590.8 437.2 590.3 436.4ZM577 469.2C575.6 469.2 574.9 469.9 574.9 471.3V474H577.4C580.9 474 584.1 473.3 586.1 471.9L588.1 468C590.6 471.1 592.6 474 595.2 474C596.6 474 597.3 473.3 597.3 471.9V469.2C593.4 469.2 592.8 468.5 590.4 465.8L577.9 452.1L597.2 446.2L599.4 442.2L599 441.8L579 448.4L576.3 454.9L586.7 466.4C587.1 466.8 587.5 467.3 587.9 467.7C585 468.8 582.6 469.2 578.3 469.2ZM597.3 469.2C595.9 469.2 595.2 469.9 595.2 471.3V474H597.5C602.7 474 607.3 473.3 611 471.6L611.5 469.1C614 457.7 609.4 451.5 604.7 451.5C601.4 451.5 598.2 454.6 598.2 460.2C598.2 463.2 599.6 466.2 603.5 466.2C606.6 466.2 609.6 464.3 610.9 462.9C611.3 464.6 611.5 466.4 611.3 468.3C608.8 468.8 605 469.2 600.4 469.2ZM607.4 444.4V444L604.6 441.2L601.8 444V444.4L604.6 447.2ZM603.8 462.1C600.1 462.1 598.7 460.6 598.7 459.2C598.7 457.9 600.2 456 603.3 456C606.5 456 609 458.2 610.3 461.3C608.7 461.7 605.7 462.1 603.8 462.1ZM620.3 446.7H619.7L617.1 450.1L618.1 474.7H618.9L620.1 468.5C620.3 467.5 620.4 466.4 620.4 465.4V455.4L621.8 453.8ZM614.4 445 614.5 445.3 621.8 443.2 622.8 441.1 622.5 440.8 621.2 441.1C620.5 441.2 619.9 441.3 619.4 441.3C616.8 441.3 616 439.7 616.1 439.1C616.2 438.6 617.4 438.1 618.4 438.1C619.7 438.1 620.4 438.9 621 439.8L621.4 439.8L621.4 439.6C622 437.7 621 435.8 619.2 435.8C617.7 435.8 616.4 437.3 615.8 438.7C615.1 440.4 615.6 441.8 616.8 442.7C616.6 442.9 616.3 443.1 616 443.5ZM638.5 464.8 637.8 464.3C636.2 466.7 635.3 469.2 635.3 471C635.3 473.2 636.5 474.5 638.2 474.5C639.8 474.5 640.9 473.5 640.9 471.8C640.9 470.3 640 469.3 638.6 469.3C638.1 469.3 637.4 469.5 636.8 469.8C636.8 468.5 637.3 466.7 638.5 464.8ZM645.4 462.9C645.4 462 645.6 460.7 645.8 459.3H645.3C644.5 462.1 644.1 464.6 644.1 466.4C644.1 472.7 648.8 474.6 654.6 474.6C660.1 474.6 666.6 473 670.1 472L671.4 469C671.7 472.7 674.3 474 677.4 474C678.7 474 679.4 473.3 679.4 471.9V469.2C676.1 469.2 673 468.6 672.9 464.8L672.9 461.9H672.2L671.6 466.1C671.4 466.8 671.4 467.5 671.4 468.2C668.1 468.7 661.3 469.8 655.9 469.8C649.9 469.8 645.4 468.4 645.4 462.9ZM663.2 457.2C663.2 457.1 663.2 456.7 663.2 456.7L660.4 454L657.9 456.6L655.4 454L652.7 456.7V457.2L655.4 459.9L657.9 457.3L660.4 459.9ZM684.5 466.5C684 467.3 683.8 468.1 683.9 468.8C682.9 469.1 681.8 469.2 679.5 469.2C678.1 469.2 677.4 469.9 677.4 471.3V474C679.5 474 681.3 473.7 682.1 473.3L684 469.5C684.2 470.5 685 471.3 686.3 471.8C689.2 473.1 692.3 474 696.1 474.5L697.6 470.8C698.6 472.6 699.8 474 701.7 474C702.3 473.8 703.4 473.4 703.7 472.9V469.2C697 469.2 698.6 458.3 692.5 458.3C689 458.3 686.8 462.2 685.3 464.9ZM685 466.6C687 463.4 688.8 462.1 690.8 462.1C694.5 462.1 695.6 466.8 697.3 470.3C692.4 469.5 688.3 468 685 466.6ZM711.1 465.2 711 462.9H710.3L710 466.6C709.9 467.2 709.9 467.8 709.9 468.3C708.4 468.7 705.7 469.2 703.7 469.2C702.4 469.2 701.6 469.9 701.6 471.3V474C704.5 474 706.9 473.3 708.9 472.2L709.9 469C710.3 472.3 712.5 474 717.3 474C722.3 474 727.7 473.4 732 472.2C733.8 473.3 735.9 474 738.6 474C739.9 474 740.6 473.3 740.6 471.9V469.2C738.5 469.2 736.8 469 735.5 468.7L736.3 467.2C738.3 463.7 735.4 457.8 729.2 457.8C723.6 457.8 718.7 462.7 714.4 468.8C712.3 468.4 711.1 467.4 711.1 465.2ZM715.1 469C718.5 464.3 722.2 461.8 726.7 461.8C731.7 461.8 734.4 464.9 735.7 467.2C731.9 468.5 726.1 469.2 719.7 469.2H719.5C717.8 469.2 716.3 469.2 715.1 469ZM738.6 474C742 474 744.7 473.2 747.1 472.1L748.3 468.9C748.8 467.4 748.9 466.1 748.8 464.7L749.6 462.8L746.3 457.5H745.7L744.1 461.5C745.9 464.1 747.7 467 747.9 468.3C745.6 468.8 742.9 469.2 740.7 469.2C739.3 469.2 738.6 469.9 738.6 471.3ZM745.7 481.1V480.7L742.9 477.9L740.1 480.7V481.1L742.9 484ZM774.5 467.7C774.5 470.1 775.8 471.6 778.4 472.2L785.1 473.8C781.9 476.2 775.6 479 770.6 479C765.3 479 763 475.9 763 471.4C763 469.3 763.5 467.2 764 465.3L763.5 465.2C762.7 467.7 761.8 471 761.8 474.4C761.8 480.9 765.1 483.7 770.4 483.7C776.1 483.7 781.8 480.5 784.7 477.8L785.7 473.5C786.3 471.1 785.4 469.8 783.1 469.2L775.1 467.1C775.3 463.8 780.6 462 784.8 462L786.4 460.6L785.2 457.4C779.7 457.4 774.5 462.1 774.5 467.7ZM776 491.1C776 491.1 776 490.7 776 490.7L773.3 487.9L770.8 490.5L768.3 487.9L765.6 490.7V491.1L768.3 493.8L770.8 491.3L773.3 493.8ZM793.4 474C794.7 474 795.4 473.3 795.4 471.9V469.2C791.4 469.2 791.2 467.7 789.9 461.3C789.4 459.2 788.2 457.4 785.2 457.4L783.9 460.1L784.8 462C786.2 462 787.5 462.2 788.5 462.4L788.7 465.9C789 470.9 789.3 474 793.4 474ZM790.7 450.4V449.9L787.9 447.1L785.1 449.9V450.4L787.9 453.2ZM793.4 474C796.8 474 799.5 473.2 801.9 472.1L803.1 468.9C803.6 467.4 803.7 466.1 803.7 464.7L804.4 462.8L801.1 457.5H800.6L798.9 461.5C800.7 464.1 802.5 467 802.7 468.3C800.4 468.8 797.7 469.2 795.5 469.2C794.1 469.2 793.4 469.9 793.4 471.3ZM800.5 481.1V480.7L797.7 477.9L794.9 480.7V481.1L797.7 484ZM812.2 446.7H811.6L809 450.1L810 474.7H810.8L812 468.5C812.2 467.5 812.3 466.4 812.3 465.4V455.4L813.7 453.8ZM806.3 445 806.4 445.3 813.7 443.2 814.7 441.1 814.4 440.8 813.1 441.1C812.4 441.2 811.8 441.3 811.3 441.3C808.7 441.3 807.9 439.7 808 439.1C808.1 438.6 809.3 438.1 810.3 438.1C811.6 438.1 812.3 438.9 812.9 439.8L813.3 439.8L813.3 439.6C813.9 437.7 812.9 435.8 811.1 435.8C809.6 435.8 808.3 437.3 807.7 438.7C807 440.4 807.5 441.8 808.7 442.7C808.5 442.9 808.2 443.1 807.9 443.5Z" fill="#d4d3ce" class="rise d3"/><path d="M418.8 522V505.2H417.3V522ZM435.7 522.3C439 522.3 440.7 519.7 440.7 516.2V515.3C440.7 511.9 439.3 509.2 435.7 509.2C434.3 509.2 433.4 509.6 432.8 509.9L431.8 511.3H431.7V504H430.2V522H431.4L431.6 520.5H431.7C432.6 521.4 433.9 522.3 435.7 522.3ZM435.6 521C433.8 521 432.5 519.7 431.7 518.7V512C432.6 511.3 433.8 510.5 435.5 510.5C437.9 510.5 439.2 512 439.2 515.3V516.2C439.2 518.9 438 521 435.6 521ZM452.7 509.5V519.5C451.9 520.1 450.2 521 448.4 521C446.9 521 445.8 520.3 445.8 518.3V509.5H444.3V518.3C444.3 520.8 445.8 522.3 448.3 522.3C449.8 522.3 450.9 521.8 451.8 521.3L452.6 520.2H452.7V522H454.1V509.5ZM460.5 522V509.5H459.1V522ZM461.3 505.7 459.8 504.1 458.2 505.7 459.8 507.2ZM466.9 522V504H465.5V522ZM475.8 522.3C477.1 522.3 477.9 522 478.7 521.6L479.6 520.2H479.7V522H481.2V504H479.7V511H479.6C478.7 509.9 477.5 509.2 475.7 509.2C472.4 509.2 470.7 511.8 470.7 515.3V516.2C470.7 519.6 472.1 522.3 475.8 522.3ZM475.9 521C473.5 521 472.2 519.5 472.2 516.2V515.3C472.2 512.6 473.4 510.5 475.8 510.5C477.6 510.5 478.9 511.8 479.7 512.8V519.5C478.8 520.2 477.6 521 475.9 521ZM494 522V509.5H492.5V522ZM494.8 505.7 493.2 504.1 491.7 505.7 493.2 507.2ZM500.4 522V512C501.1 511.4 502.8 510.5 504.6 510.5C506.2 510.5 507.3 511.2 507.3 513.2V522H508.7V513.2C508.7 510.7 507.2 509.2 504.7 509.2C503.2 509.2 502.1 509.7 501.3 510.2L500.4 511.3H500.4V509.5H498.9V522ZM523.1 522.3C525.9 522.3 527.9 520.7 527.9 518.4C527.9 516.6 526.8 515.6 524.5 515L522.5 514.6C521.3 514.3 520.3 513.8 520.3 512.5C520.3 511.3 521.3 510.5 523.1 510.5C524.9 510.5 525.9 511.3 526.6 511.9L527.4 510.9C526.5 510 525.3 509.2 523.2 509.2C520.6 509.2 518.8 510.5 518.8 512.6C518.8 514.2 519.9 515.4 521.9 515.8L523.9 516.3C525.3 516.6 526.4 517 526.4 518.4C526.4 519.8 525.1 521 523.1 521C521.1 521 520 520 519.3 519.3L518.3 520.2C519.2 521.2 520.7 522.3 523.1 522.3ZM533.1 522V509.5H531.6V522ZM533.9 505.7 532.3 504.1 530.8 505.7 532.3 507.2ZM539.5 522V504H538V522ZM548.8 522.3C551.1 522.3 552.5 521.2 553.2 520.3L552.2 519.3C551.6 520 550.6 521 548.7 521C546.5 521 544.7 519.6 544.7 516.2V515.7H553.8C553.8 511.7 552 509.2 548.6 509.2C545.1 509.2 543.2 511.8 543.2 515.3V516.2C543.2 519.7 545.2 522.3 548.8 522.3ZM544.8 514.5C545 511.9 546.3 510.5 548.6 510.5C550.9 510.5 552.2 511.9 552.5 514.5ZM558.9 522V512C559.6 511.4 561.3 510.5 563.1 510.5C564.7 510.5 565.8 511.2 565.8 513.2V522H567.2V513.2C567.2 510.7 565.8 509.2 563.3 509.2C561.8 509.2 560.7 509.7 559.8 510.2L559 511.3H558.9V509.5H557.4V522ZM576.1 522.3C578.3 522.3 579.6 521.2 580.3 520.3L579.3 519.3C578.8 520 577.8 521 576 521C574 521 572.3 519.6 572.3 516.2V515.3C572.3 511.9 574 510.5 576 510.5C577.8 510.5 578.8 511.5 579.3 512.2L580.3 511.2C579.6 510.3 578.3 509.2 576.1 509.2C572.7 509.2 570.8 511.8 570.8 515.3V516.2C570.8 519.7 572.7 522.3 576.1 522.3ZM587.9 522.3C590.2 522.3 591.6 521.2 592.3 520.3L591.3 519.3C590.7 520 589.7 521 587.8 521C585.6 521 583.8 519.6 583.8 516.2V515.7H592.9C592.9 511.7 591.1 509.2 587.7 509.2C584.2 509.2 582.3 511.8 582.3 515.3V516.2C582.3 519.7 584.3 522.3 587.9 522.3ZM583.9 514.5C584.1 511.9 585.4 510.5 587.7 510.5C590 510.5 591.3 511.9 591.6 514.5ZM598 522 599.6 520.4 598 518.8 596.4 520.4ZM612.5 522V505.2H611V522ZM628.9 520.7H626.6C626 520.7 625.8 520.5 625.8 519.7V510.8H628.7V509.5H625.8V505.9H624.4V508.5L625.2 509.4V509.5H622.5V510.8H624.4V519.5C624.4 521.1 625.3 522 626.9 522H628.9ZM634.1 522V512C634.8 511.4 636.5 510.5 638.3 510.5C639.9 510.5 641 511.2 641 513.2V522H642.4V513.2C642.4 510.7 641 509.2 638.4 509.2C636.9 509.2 635.8 509.7 635 510.2L634.2 511.3H634.1V504H632.6V522ZM648.6 522V509.5H647.2V522ZM649.4 505.7 647.9 504.1 646.4 505.7 647.9 507.2ZM655 522V512C655.7 511.4 657.5 510.5 659.3 510.5C660.8 510.5 661.9 511.2 661.9 513.2V522H663.4V513.2C663.4 510.7 661.9 509.2 659.4 509.2C657.9 509.2 656.8 509.7 655.9 510.2L655.1 511.3H655V509.5H653.6V522ZM669.6 522V518.4L671.7 516.1C673.2 516.6 674.4 518.1 675.3 519.6L676.7 522H678.3L676.4 518.8C675.7 517.5 674.2 515.6 672.7 515.1L677.8 509.5H676L669.7 516.5H669.6V504H668.1V522ZM692.1 522.3C695.8 522.3 697.6 519.7 697.6 516.2V515.3C697.6 511.8 695.8 509.2 692.1 509.2C688.4 509.2 686.5 511.8 686.5 515.3V516.2C686.5 519.7 688.4 522.3 692.1 522.3ZM692.1 521C689.5 521 688 519.4 688 516.2V515.3C688 512.1 689.5 510.5 692.1 510.5C694.7 510.5 696.1 512.1 696.1 515.3V516.2C696.1 519.4 694.7 521 692.1 521ZM709.5 509.5V519.5C708.8 520.1 707.1 521 705.3 521C703.8 521 702.6 520.3 702.6 518.3V509.5H701.2V518.3C701.2 520.8 702.7 522.3 705.2 522.3C706.7 522.3 707.8 521.8 708.6 521.3L709.4 520.2H709.5V522H711V509.5ZM720.8 520.7H718.6C718 520.7 717.8 520.5 717.8 519.7V510.8H720.7V509.5H717.8V505.9H716.4V508.5L717.1 509.4V509.5H714.5V510.8H716.4V519.5C716.4 521.1 717.3 522 718.8 522H720.8ZM732.4 522V504H731V522ZM741.7 522.3C745.4 522.3 747.3 519.7 747.3 516.2V515.3C747.3 511.8 745.4 509.2 741.7 509.2C738 509.2 736.2 511.8 736.2 515.3V516.2C736.2 519.7 738 522.3 741.7 522.3ZM741.7 521C739.1 521 737.7 519.4 737.7 516.2V515.3C737.7 512.1 739.1 510.5 741.7 510.5C744.3 510.5 745.8 512.1 745.8 515.3V516.2C745.8 519.4 744.3 521 741.7 521ZM759.2 509.5V519.5C758.5 520.1 756.8 521 755 521C753.4 521 752.3 520.3 752.3 518.3V509.5H750.8V518.3C750.8 520.8 752.3 522.3 754.8 522.3C756.3 522.3 757.4 521.8 758.3 521.3L759.1 520.2H759.2V522H760.6V509.5ZM769.5 522.3C770.8 522.3 771.6 522 772.4 521.6L773.4 520.2H773.5V522H774.9V504H773.5V511H773.4C772.4 509.9 771.2 509.2 769.4 509.2C766.1 509.2 764.4 511.8 764.4 515.3V516.2C764.4 519.6 765.8 522.3 769.5 522.3ZM769.6 521C767.2 521 765.9 519.5 765.9 516.2V515.3C765.9 512.6 767.2 510.5 769.5 510.5C771.3 510.5 772.7 511.8 773.5 512.8V519.5C772.6 520.2 771.4 521 769.6 521ZM781.3 522 783 520.4 781.3 518.8 779.8 520.4Z" fill="#8f8c85" class="rise d4"/></g><rect x="0.5" y="0.5" width="1199" height="599" rx="26" fill="none" stroke="rgba(240,238,230,.12)"/></svg>